<?xml version="1.0" encoding="utf-8"?>
<!-- Generator: Adobe Illustrator 15.1.0, SVG Export Plug-In . SVG Version: 6.00 Build 0)  -->
<!DOCTYPE svg PUBLIC "-//W3C//DTD SVG 1.1//EN" "http://www.w3.org/Graphics/SVG/1.1/DTD/svg11.dtd">
<svg version="1.1" id="Layer_1" xmlns="http://www.w3.org/2000/svg" xmlns:xlink="http://www.w3.org/1999/xlink" x="0px" y="0px"
	 width="432px" height="720px" viewBox="0 0 432 720" enable-background="new 0 0 432 720" xml:space="preserve">
<path d="M233.821,80.938c0,0-1.125,0.188-1.438,2.188c0,0,0.062,2,0.438,2V94.5c0,0,0.312,1-0.438,2.062c0,0,0.188,2.188,0,2.562
	c0,0-1.062,1.375,0,2.438c0,0,0.25-0.25,0.938,0.438c0,0,1.25,1.25,1.625-0.438c0,0,0.25-3.125,0-3.75c0,0-0.25-0.312-0.875-0.125
	c0,0-0.938-0.312,0.188-1.438c0,0,0.625-4.125,0.125-4.875c0,0-0.312-8.812,0-9.75C234.384,81.625,234.143,80.803,233.821,80.938z"
	/>
<path d="M200.988,85.5c0,0-0.583,0.667-0.583,3.167c0,0-0.417,3.703,0.583,3.018c0,0,0.5-1.166,0.417-3.05
	C201.405,88.634,202.072,84.416,200.988,85.5z"/>
<path d="M198.488,84.833c0,0,0.25,1.833,0.917,1.5c0,0,0.25-1.417,0.417-2.167c0,0,0.7,0,1.142-1.333c0,0-0.25-1.75-1.238-0.917
	c0,0-0.07-2.5-0.404-3.417c0,0,0.058-5.834,0.404-6.417c0,0,1.59-3.416,0.593-4.249c0,0-1.164,0.083-1.247-1.167
	c0,0-0.417-6.333,0.25-7.167c0,0,0.334-1.333-0.833-1.333c0,0-0.581,1.821,0,2c0,0-1.583,3.334-1.583,4.917
	c0,0-0.583,3.083,0.5,3.083c0,0,0.75,0.75,0.167,8.75c0,0,0.083,1.833,0.583,3.083C198.155,80,198.489,80.082,198.488,84.833z"/>
<path d="M196.748,48.312c0,0-0.636,2.125,0,3.188c0,0-0.355,1.688-0.141,2.562c0,0,0.589,0.625,0.902-2.438
	C197.509,51.625,198.112,48.188,196.748,48.312z"/>
<path d="M196.748,55.812c0,0-0.161-1.062,0.894-0.875c0,0-0.18,1.875,0,2.812c0,0,0.02,4.75-0.588,3
	C197.054,60.75,196.737,61.375,196.748,55.812z"/>
<path d="M189.321,28.875c0,0,0.125,1.312,0.875,0.938c0,0,1.875,0.125,0.312,1.312c0,0-0.065,0.938-0.283,1.812
	c0,0-0.155,2.062-0.53,2.5c0,0-0.312,2.562-0.375,2.438c0,0-0.25,2.562-0.375,2.125c0,0-0.125,1.875-0.438,1.938
	c0,0,0.188,1,0,1.625c0,0-0.188,2.625-0.312,3.125c0,0-0.438,1.5-1.25,2.125c0,0-0.312-1.688,0-2.438c0,0-0.25-1.375,0.188-1.938
	c0,0-0.312-1.375,0.25-1.562c0,0,0.5-1.438,0.5-2.062c0,0,0.25-3.25,0.625-3.188c0,0,0.107-7.688,0.46-7.688
	C188.969,29.938,188.759,28.938,189.321,28.875z"/>
<path d="M188.969,46.5c0,0,2.346,1.743,2.162,1.809c0,0-0.351,6.524-0.351,7.399c0,0,0.667,0.125,0.625,0.542
	c0,0-0.417,15.542-0.208,15.75c0,0,0.046,0.292,0.21,0.458c0,0,0.044,6.083,0,6.708c0,0,0.039,1.541-0.252,1.583
	c0,0-0.292,2.917-0.25,3.167c0,0,0.585,1.167,0.522,1.625c0,0,0.187,1.167,0.187,1.75c0,0,0.625,11.292,0.583,12.625
	c0,0,0.958,0.833,1.417,0c0,0,0.042-0.667,0.5-0.167c0,0,0.292,5.708,0,6.875c0,0,0.093,10.334,0.13,10.626c0,0,0.87,3.708,0.662,5
	c0,0,0.333,13.5,0.125,14.458c0,0,1.042,22.54,0.98,23.915c0,0-0.062,6.125,0.375,6.25c0,0,0.5,14.25,0,15.938
	c0,0,0.438,4.688,1.375,4c0,0,2.75-1.112,3.125,0.069c0,0,0.188,5.306,0,5.744c0,0,0.229,3.75,0.083,6.812
	c0,0-0.632,10.5,0.048,10.188c0,0,0.868,10.375,0.806,11.188c0,0,0.5,5.562,1.438,5.688c0,0,1.375,8.625,1.5,18.125
	c0,0,1.188,19.062,1.188,20.688c0,0,0.188,10.25,0,11.688c0,0-0.146,10.188,0.083,10.5c0,0,0.667,15.5,0.667,16.188
	c0,0,0.625,20.188,0.625,21.875c0,0,0.438,17.375,0.938,18.125c0,0,1.188,4.438,1.875,4.438c0,0,0.438,5.938,0.438,8.25
	c0,0-0.125,6.625,0,6.75c0,0,0.75,4.938,0.75,5.625c0,0-0.125,16.688,0.375,17.188c0,0,0.375,4.75,0.375,5.5
	c0,0,0.438,10.5,0.438,11.188c0,0-0.5,4.75,0,5.125l0.5,10.875v5.438l0.75,16.062l0.5,5.438v5.5l0.5,11.062l0.375,5.75v7.875
	l0.5,15.188c0,0,13.271-9.688,13.938-9.521c0,0,1.418,0-0.416,3.667s-1.834,3.667-1.834,3.667s-6.584,13-6.25,14
	c0,0,1.584,4.999,1.584,5.916l-0.25,10.417l0.666,5.167l0.25,11.417l0.667,15.418l0.083,11.25l0.584,10.501l0.916,16.501
	l0.25,13.833l1.25,16.669l0.917,15.833l0.417,10.834l0.416,10.667l0.167,16.084l-0.583,11.166l-0.334,6.333l-0.666,6.75
	l-0.709,7.118l-39.375,2.625v-7.875c0,0-2.875-8.5-2-10.5c0,0-1-6.125-1-8.625c0,0-1-10.875-1.125-12.375s0.125,1.5,0.125,1.5
	s-1.5-23.25-1-25.25c0,0,1-15.25,1-18.125l-0.5-17.625c0,0,1-5.625,0.375-8c0,0-2.079-7.875-0.977-10c0,0-0.122-15.125-0.322-17.125
	c0,0,0.451-19.875,0-21.875V538.25c0,0-0.299-11.75,0-12.5c0,0,5.674-12,6.174-13c0,0,1.5-20.875,1.25-22.25
	c0,0-0.75-31.125-0.75-32.5c0,0-0.375-12-0.375-12.625c0,0,1.375-1.625,1.375-3c0,0,0-8.125-0.5-9c0,0-1.25-31.5-1.25-33
	l-0.625-28.25c0,0-2.5-5.25,0.125-8.75c0,0,3.625-6.625,2-10c0,0-1.25-2.75-1.125-11.875l-0.625-31.125c0,0-0.25-12.875-1.5-14.75
	c0,0,0-4.625,1.625-4c0,0,1.875-3.375,0-5.875c0,0-2.375-4-2-5.75c0,0,1.5-10.75,0.875-18.375c0,0-0.125-9.5-1.125-9.875
	c0,0-1.25-3.75,0.625-6.125c0,0,0.25-5.875-0.5-7.375l-0.75-35.875c0,0,1.5-6.25,2.375-6.25c0,0,0.75-2.625,0.625-5.125
	c0,0,0.188-3.5-0.312-3.625c0,0-0.562-1.75,0.625-1.75c0,0,1.438,0.25,0.938,2.625c0,0,0.062,2.938,0.812,2.562
	c0,0,0.914-7.427,0.23-9.39c-0.031-0.09-0.066-0.169-0.105-0.235c-0.875-1.5-0.375-17.938-0.062-18.75c0,0,0.562-3.562,1.562-4.312
	c0,0,1.5-3.875-0.688-3.938c0,0-1.688-1-1.75-3.25l-0.875-18.562v-8.812c0,0,1.438,1.75,1.438,2.75c0,0,3.688-1,1.375-3.375
	c0,0,2.188-6.188-1.812-3.125c0,0-2.312-0.75-0.562-3.562c0,0,1.75,0.062,2.312-1.625c0,0,0.188-1.312-2.688-0.312
	c0,0-1.438-1,0.438-3.25c0,0,3.625-5.312,1.562-5.062c0,0-2.5,0.5-2.625,2.75c0,0-0.625,1-1.188-1.125c0,0-2.875,1.188-1.812-0.75
	c0,0-0.562-1.125,5.75-2.938c0,0,0.312-2.062-1.25-2.062c0,0-1.438-3.062-1.312-5.438v-7.125c0,0-1-7.25-0.688-7.438
	c0,0-0.125-5.062-0.125-5.688c0,0-0.438-4.938-0.312-5.25c0,0-0.812-5.375-0.5-5.938c0,0,1.125-4.875,1.312-5.438
	s-0.188,0.562-0.188,0.562s0.875-6.312,0.875-7.125"/>
<path d="M185.571,56.312c0,0,0.031,6.25,0.281,6.312c0,0,0.719,0.781,0.938,0.781c0,0-0.312-7.844-0.406-8.156
	c0,0,0.062-5.156-0.203-5.438c0,0-1.297-2.625-1.578-2.594c0,0-1.281,3.844-1.247,4.657c0.002,0.057,0.011,0.1,0.028,0.124
	c0.25,0.375,0.031,12.938,0.188,12.969c0,0,0.156,1.812-0.438,2.125c0,0-0.5-0.031-0.531-1.031c0,0-0.396-5.031-0.839-4.656
	c0,0-0.567-0.031-0.38,6.219c0,0-0.438,10.969-0.188,11.125c0,0,0.219,9.75,0.188,10.344c0,0-0.438,11-0.281,11.25
	c0,0,0.156,5.844,0.094,6.562c0,0-1.094,4-1.688,4.406c0,0-0.531,1.5,0,3.062c0,0,0.219,1.5,0.469,2.156c0,0,1,5.156-0.062,5.25
	c0,0-3.062,0.469-3.188,0c0,0,0.25-4.625,0.188-5.156c0,0-0.031-5.25,0.125-5.625c0,0,0.156-4.625,0.156-5.281
	c0,0,0.562-3.125,0.094-3.594c0,0-0.625-1.469-0.938,0.812c0,0,0.312,5.531,0.375,5.688c0,0-0.281,5.094-0.375,5.469
	c0,0-1.594,4.719-1.594,5.438c0,0-0.375,9.812-0.219,10.25c0,0-3.469,5.781-3.469,8.344c0,0,0.125,4.719-0.312,4.719
	c0,0-0.75-0.219-1.281-1.281c0,0-1.5-0.375-1.781,0.281c0,0-0.812,0.844-0.5-3.25c0,0-0.062-3.594,0.281-4.094
	c0,0,0.594-2,0.031-2.562c0,0-0.875-0.156-1,2.25c0,0-0.5,1.875-0.75,2.062c0,0-1.219-2.281-0.531-6.062c0,0-0.562-0.75-0.812,1.281
	c0,0-0.312,4.469-1.219,4.375c0,0-0.469-0.25-0.438-2.188c0,0-0.062-8.938,0.25-9.406c0,0,0.562-4.656,0.031-5.875
	c0,0-0.072-8.188-0.286-8.688c0,0-1.151-1.562-1.526-1.312c0,0-0.844,1.531-0.875,2.344c0,0,0.219,7.281,0,7.812
	c0,0-1,2.281-1,2.781c0,0,0.281,2.344,0,2.562c0,0-0.969-0.094-0.969,0.781c0,0,0.031,4.312,0.281,4.312
	c0,0,0.031,10.094-0.062,10.25c0,0-0.438,10.5-0.219,10.844c0,0-0.188,2.188-1.062,0.875c0,0-0.312-14.531-0.25-14.812
	c0,0-0.156-9.125-0.438-9.125c0,0-1.406-0.094-1.375-0.5c0,0-0.031-4.906-0.281-4.938c0,0-0.719-0.156-0.688,0.688
	c0,0-0.033,5.938-0.001,6.188c0,0-0.437,16.094-0.405,16.375c0,0-0.594,5.344-0.594,5.469c0,0,0,15.906,0,16.281
	c0,0-1.688,3.344-1.688,3.75c0,0-0.219,22.25-0.125,22.531c0,0-0.344,5-0.406,5.594c0,0-0.5,2.281-0.5,2.844
	c0,0-0.031,7.938,0.062,8.188c0,0,0.188,3.156,0.094,3.719c0,0-0.531,1.562-0.531,2.031c0,0-0.219,6.594,0,6.75
	c0,0,0.281,10.156,0.25,10.469c0,0-0.094,7.188-0.094,7.5c0,0,0.188,1.969-0.094,1.969c0,0-2.281-0.906-2.062,1.062
	c0,0-0.375,3.344-0.562,3.938c0,0-0.062,10.375,0.125,10.844c0,0,0.25,23.562,0.188,23.844c0,0-2.812,0.281-3.656-0.375
	c0,0-1.656-1.094-1.594,4.344l-0.156,5.312c0,0-0.688,2.469-0.812,2.969c0,0,0.094,5.219,0.219,5.469l0.688,2.625
	c0,0-0.125,31.562-0.156,32c0,0-0.938,3.469-1.125,3.938c0,0,0.156,36.875,0,39c0,0,0.031,4.375,0,5.125
	c0,0-1.406,1.375-1.781,2.875c0,0-0.75,5.625-1,0l0.75-3.125c0,0-0.125-4.75,0-4.875c0,0,1.312-1.656,0.062-1.875
	c0,0-0.812-0.188-1.25,0v-2.812c0,0,1.344-0.531,1.312-1.625c0,0,0.25-0.969-1.312-1.156l-0.625,0.031l0.219-2.969
	c0,0,1.312-1,1.312-2.031c0,0-0.281-1.25-1.531-1.469c0,0-0.5-1.938-0.406-1.969s1.156-1,1.156-2.219s0-0.156,0-0.156
	s-0.281-2.219-1.031-2.062l-0.137-2.469c0,0,1.012-1.344,0.918-2.438c0,0-0.281-1.062-1.188-1.375v-1.5c0,0,1.531-2.219,1.344-2.844
	c0,0-0.375-1.344-1.344-1.188V343c0,0,1.219-1.562-0.438-2.281c0,0-1.5-0.562-1.656,1.219c0,0-0.125,0.531,0,1.062
	c0,0-0.188,1.312-0.719,1.469c0,0-1.844,1.344,0.594,3.531c0,0,0.625,1.062,0.375,1.938c0,0-2.087,1.469-1.637,2.25
	c0,0,0.325,0.938,1.137,1.812v1.75c0,0-1.906,0.969-1.906,2.094c0,0,0.125,2.188,1.625,3.188l0.031,1.312
	c0,0-1.625,1.406-1.656,2.281c0,0-0.031,1.875,1.156,2.188l-0.188,1.969c0,0-1.75,1.75-1.75,2.5c0,0,0.562,2.25,1.375,2.094
	c0,0-1.969,2.938-1.969,3.938c0,0-0.162,2.295,0.242,2.77c0.03,0.036,0.064,0.062,0.102,0.074c0.531,0.188,0.344,6.125,0.344,6.125
	l-1.938,4.25v17.719L75.071,480l-16.875,22l-18.375,11.25l-17.75,10l-23.575,12.375v67.042L98.821,530l25.5,54.166
	c0,0,1.333,0.917,0.833,11.001c0,0,0.417,3-0.167,4.667c0,0,3.417,2.834,3.25,4.167c0,0,0.5,11.001,0.5,12.501
	c0,0,1.167,23.084,1.167,24.001c0,0,1.083,9.251,1.083,11.417c0,0,0.917,21.501,1.167,31.334c0,0,2,2.916,2,4.416
	c0,0,0.25,11.917,0.25,13.834L133.321,713h37l-3.333-12.167c0,0,2.167-16.502,2.167-18.168s0,1.666,0,1.666l0.167-35.664
	l-0.333-23.832l0.5-22.5l-0.167-16.499l-0.167-13.667l-0.5-20.999l0.167-17.331l-0.333-15.667l-2.833-20.832l-0.667-5.667h2
	l8,16.833l0.667-30.666c0,0-1-26.332-1-27.499v-15c0,0,0.667-4.167,1.167-8.167l-0.667-18.667l0.333-15.167l-0.833-11.167v-24.333
	l-2.5-18.001c0,0,5.105,11.474,5.167,11.974c0,0,0.125,1.562,0.438,1.688c0,0,0.688-1.688,0.688-2.438c0,0,0.625-0.375,1-0.312
	c0,0,0.375-0.75-1-2.25l-0.125-6.938c0,0,2.375-2.125,0.688-3.438c0,0-0.875-1.25-0.875-2.312l-0.75-23.625l-0.25-15.312
	l-0.312-12.562l0.5-4.375l-0.375-20.688l-0.125-11.188L175.071,235l-0.812-6c0,0,2.75,0.562,3.25,1.312l4.255,6.562l-0.442-23.438
	l-0.438-9.938l-0.188-4.312l1.067-3.062l-1.692-4.375l-1.188-5.312c0,0,3.957,4.18,4.556,5.435c0.036,0.074,0.059,0.138,0.069,0.19
	c0.188,0.938,0.5-5.375,0.5-5.375l-0.438-10.125l-0.562-12.75l-0.188-10.688l-0.688-10.812l-0.37-1.812l2.183,2l-0.062,9.25
	l0.375,6.562l0.125,7l0.125,8.875l0.625,11.25L185.071,194l0.75,1.188l0.125-11.5l-0.875-14.938l-0.25-13.312l-0.125-13.062
	l-0.5-21.062l-0.625-12.062l-0.062-6.312l2-1.938l0.25-3.562l0.188-5.375l-0.562-6.741l-0.188-8.947l-0.75-7.312l0.188-7.438
	l0.312-5.438C184.946,56.188,184.638,55.635,185.571,56.312z"/>
<path d="M259.946,90.75c0,0,0.938-2.5,1.438-2.25c0,0,0.5,0.625,0.812,3.375c0,0-0.25,11.312,0,11.812c0,0,0.562,5.812,0,5.938
	c0,0-2.188-0.688-2.25-1.812c0,0-0.125-5.5,0-6.062c0,0-0.375-2,0.562-2c0,0,0.5-2.75,0.062-4.562S259.556,91.675,259.946,90.75z"/>
<path d="M269.946,51.188c0,0-2.438-0.875-2.938,1.5c0,0,0.188,2.125,0.625,2.125c0,0,0.125,2.688-0.312,3.688
	c0,0-0.125,4.25-0.312,5c0,0-0.25,5.562-0.625,5.562c0,0-1.75-0.938-1.75,0c0,0-1.5,2.75-0.938,10.625c0,0,0.5,2.188,0.125,2.875
	c0,0-2-0.5-1.375,4.312L266.136,103c0,0,0.436,3.438-0.377,3.562c0,0-1.5,0.188-1.562-0.375c0,0-1.375-0.625-0.25,3.438
	c0,0,1.254,1.562,2.189-2.062c0,0,0.936-1.125,0.998,2.938c0,0-2.938,1.312-3.062,2.188c0,0-0.688,2,1.062,1.625
	c0,0,1.625-1.812,2.25-1.562c0,0,0.75,0.281-0.312,1.609c0,0-2.625,0.891-2.625,1.828c0,0-0.188,1.562,1.188,0.688
	c0,0,2.25-1.875,2.25-1.25c0,0,0.691,0.25-1.748,2c0,0-2.064,1-1.377,2c0,0,0.438,0.5,2-1.375c0,0,1-0.375,0.812,0.75
	c0,0-2.059,0.875-1.436,2.125c0,0,2.123,1.312,2.311-0.562c0,0,0.562-2.938,1.5-2.938c0,0,0.438,1.625,0.438,3.25
	c0,0,1.062,1.125,1.125-1.5c0,0-1.312-6.25-1.188-7.625c0,0-0.125-9.062-1.812-9.562c0,0-0.396-1.062-0.396-2.729
	c0,0-0.542-2.375-0.542-3.25c0,0,0.834-1.792,0.709-3.25c0,0-0.126-4.5-0.334-5.375c0,0-1.098-4.401-1.102-5.949
	c0-0.221,0.021-0.384,0.072-0.467c0.404-0.667,0.904-7.916,0.904-9.166c0,0,0.167-2.083,1-2.25c0,0,0.584-9.584,0.584-10.25
	c0,0,0.25-6.083,0.25-6.667C269.655,52.833,270.987,52.042,269.946,51.188z"/>
<path d="M269.946,68.188c0,0,0.438,0.188,0.844,0.969c0,0,1.281,0.031,1.312,0.375c0,0-0.125,2.156,0,2.5
	c0,0,0.438,1.125,0.438,1.625c0,0,0.344,1.5,0.344,1.969c0,0,0.594,4.188,0.594,4.719c0,0,0.201,1.888,0.243,2.501
	c0.005,0.07,0.007,0.123,0.007,0.155c0,0.312,0.625,4.688,0.656,4.938c0,0,0.188,2.438,0.188,2.625c0,0,0.656,4.781,0.656,5.25
	c0,0,0.531,5.125,0.562,5.406c0,0,0.781,7.969,0.75,8.406c0,0,1.125,10.344,1.188,10.594c0,0,0.25,1.219,0.5,1.219
	c0,0,1.125-0.656,1.312-0.562c0,0,1.25,0.719,1.062,1.344c0,0-0.781,1.156-1.031,1.188c0,0-0.562,1.656-1.031,1.625
	c0,0-2.219-0.28-2.312,0c0,0-2.312,1.125-2.344,0.531c0,0-0.25-2.656,0.188-2.875c0,0,0.656-0.781,0.656-1.656
	c0,0-0.156-2.312-0.688-2.531c0,0-1.406-1.188-1.344-2.094c0,0-0.375-2.844-0.438-3.406c0,0-0.719-2.906-0.938-3.031
	c0,0-0.531-4.906-0.531-5.5c0,0-1.156-5.188-1.094-5.594c0,0-0.188-4.938-0.188-5.312c0,0-0.406-5.562-0.406-5.969
	c0,0-0.156-6.031-0.156-6.344l0.375-10.844C269.321,70.406,269.626,67.946,269.946,68.188z"/>
<path d="M277.864,69.25c0,0-1,1.542-0.917,2.667c0,0,0.245,0.834,0.456,1.042c0,0-0.081,1.875,0.169,2.083
	c0,0,0.792-0.083,1.042-1.333c0,0,0.375-2,0-2.542c0,0-0.751-1-0.084-1.125C278.53,70.042,278.614,68.333,277.864,69.25z"/>
<path d="M278.781,76.46c0,0-0.458,3.458-0.292,3.875c0,0-0.207,1.917,0.292,1.917c0,0,0.583-0.667,0.541-2.896
	C279.322,79.356,279.782,74.793,278.781,76.46z"/>
<path d="M280.155,82.252c0,0-0.25,1.626-0.25,1.917c0,0-0.914,3.751-0.478,4.313c0,0,0.519,1.812,0.728,1.895
	c0,0-0.082,3.25,0.209,3.708c0,0,0.333,3.292,0.583,3.292c0,0,0.042,2.667,0.417,2.875s0,0.167,0,0.167s-0.166,2.208,0.167,2.25
	c0,0,0.916-1.333,0.916-2.458c0,0-0.249-2.682-0.333-3.258c0,0-0.293-2.701-0.459-2.701c0,0,0-2.541,0.125-2.583
	c0,0,1.209-0.5,0.667-2.167c0,0-0.666-0.833-1.083-0.75c0,0-1.125,0,0.458-1.292c0,0,0.792-1.917-0.458-2.417
	c0,0-0.209-1.375-0.209-1.833C281.155,83.211,280.738,80.918,280.155,82.252z"/>
<path d="M284.238,109.835c0,0-0.875,0.333-0.292,1.708c0,0,0.666,2.667,1.208,2.667c0,0,0.625-0.958,0.417-1.958
	C285.571,112.252,285.572,108.96,284.238,109.835z"/>
<path d="M268.779,124.958c0,0-0.791,0.708-0.708,1.333c0,0-0.174,3.375,0.351,4.292c0,0,0.399,4.334,0.524,4.792
	c0,0,1.458,9.792,1.458,10.625c0,0,1,12.792,1,13.334c0,0,1.291,10.458,1.291,11.125c0,0,0.874,7.792,0.916,7.917
	c0,0,0.917,7.667,0.917,8.042c0,0,0.792,10.124,0.792,10.541c0,0,1.333,10.667,1.333,11.292c0,0,1.042,8.875,1.042,9.042
	c0,0-0.791,1.25-0.5,1.792c0,0,0.916,1.958,0.916,2.5c0,0,0.5,3.958,0.5,4.375c0,0-0.083,3.417,0.542,3.375
	c0,0,2.916-1.667,2.958-2.667c0,0,0.084-1.417-1.458-1.167c0,0-1.042-1.375-0.375-2.458c0,0,1.249-2-0.417-2.083
	c0,0-1.125-1.042,1.042-2.25c0,0-0.124-2.666-1.208-2.208c0,0-0.668-2.333-0.709-3.375l-1.166-11.125l-0.999-8.958
	c0,0-1-8.833-1.125-9.375c0,0-0.652-6.043-0.618-6.521c0,0-0.34-4.937-0.465-5.312c0,0-0.832-6.833-0.832-7.417
	c0,0-0.666-5.25-0.666-5.833c0,0-0.376-6.084-0.584-6.584c0,0-1.167-5.667-1.167-6.333c0,0-0.5-6.292-0.5-6.875
	c0,0-0.584-6.125-0.625-6.583c0,0-0.583-4.708-0.583-5.375C269.656,126.833,269.569,124.584,268.779,124.958z"/>
<path d="M217.321,162.875c0,0,1-1.562,1.562-1.375c0,0,1.75,1.5,1.75,2.375c0,0,1.375-2.594,1.812-2.391c0,0,1.75,1.828,1.75,2.391
	c0,0-0.125,9.812,0,10c0,0,0.938,9.688,0.938,10.625c0,0,0.438,5.312,0.438,5.875c0,0,0.312,4.875,0.312,5.375
	c0,0,0.5,5.125,0.5,5.438c0,0,0.75,2.75,0.5,3.062c0,0-6.938-0.5-7.25-1.375c0,0-0.188-5-0.188-5.75c0,0-0.562-5.625-0.562-5.375
	c0,0-0.438-5.312-0.438-5.562s0,0.25,0,0.25l-0.125-5.75l-0.438-5.438l-0.562-4.875V162.875z"/>
<path d="M226.196,164.312c0,0,1-1.562,1.562-1.375c0,0,1.75,1.5,1.75,2.375c0,0,1.375-2.594,1.812-2.391c0,0,1.75,1.828,1.75,2.391
	c0,0-0.125,9.812,0,10c0,0,0.938,9.688,0.938,10.625c0,0,0.438,5.312,0.438,5.875c0,0,0.312,4.875,0.312,5.375
	c0,0,0.5,5.125,0.5,5.438c0,0,0.75,2.75,0.5,3.062c0,0-6.938-0.5-7.25-1.375c0,0-0.188-5-0.188-5.75c0,0-0.562-5.625-0.562-5.375
	c0,0-0.438-5.312-0.438-5.562s0,0.25,0,0.25l-0.125-5.75l-0.438-5.438l-0.562-4.875V164.312z"/>
<path d="M247.644,169.267c0,0,1-1.562,1.562-1.375c0,0,1.75,1.5,1.75,2.375c0,0,1.375-2.594,1.812-2.391c0,0,1.75,1.828,1.75,2.391
	c0,0-0.125,9.812,0,10c0,0,0.938,9.688,0.938,10.625c0,0,0.438,5.312,0.438,5.875c0,0,0.312,4.875,0.312,5.375
	c0,0,0.5,5.125,0.5,5.438c0,0,0.75,2.75,0.5,3.062c0,0-6.938-0.5-7.25-1.375c0,0-0.188-5-0.188-5.75c0,0-0.562-5.625-0.562-5.375
	c0,0-0.438-5.312-0.438-5.562s0,0.25,0,0.25l-0.125-5.75l-0.438-5.438l-0.562-4.875V169.267z"/>
<path d="M256.562,170.941c0,0,0.959-1.588,1.526-1.415c0,0,1.788,1.454,1.812,2.329c0,0,1.307-2.629,1.749-2.437
	c0,0,1.797,1.782,1.812,2.344c0,0,0.131,9.812,0.261,9.997c0,0,1.189,9.66,1.214,10.597c0,0,0.575,5.299,0.59,5.861
	c0,0,0.439,4.865,0.452,5.365c0,0,0.633,5.11,0.642,5.423c0,0,0.821,2.729,0.579,3.048c0,0-6.948-0.319-7.283-1.186
	c0,0-0.317-4.994-0.337-5.743c0,0-0.709-5.608-0.702-5.358c0,0-0.575-5.299-0.582-5.549s0.007,0.25,0.007,0.25l-0.275-5.745
	l-0.578-5.424l-0.689-4.858L256.562,170.941z"/>
<path d="M229.384,210c0,0,3.062-2.812,3.375-2.812c0,0,3.5,4,3.5,4.25v9.312c0,0,0.438,4.812,0.375,5.375
	c0,0,0.375,3.188,0.375,3.562c0,0,0.75,2,0.562,2c0,0-6.938-1.375-7.062-1.625c0,0-0.688-8.125-0.688-8.625
	c0,0-0.562-5.125-0.438-5.625V210z"/>
<path d="M220.384,208.5c0,0,3.062-2.812,3.375-2.812c0,0,3.5,4,3.5,4.25v9.312c0,0,0.438,4.812,0.375,5.375
	c0,0,0.375,3.188,0.375,3.562c0,0,0.75,2,0.562,2c0,0-6.938-1.375-7.062-1.625c0,0-0.688-8.125-0.688-8.625
	c0,0-0.562-5.125-0.438-5.625V208.5z"/>
<path d="M251.259,214.866c0,0,3.062-2.812,3.375-2.812c0,0,3.5,4,3.5,4.25v9.312c0,0,0.438,4.812,0.375,5.375
	c0,0,0.375,3.188,0.375,3.562c0,0,0.75,2,0.562,2c0,0-6.938-1.375-7.062-1.625c0,0-0.688-8.125-0.688-8.625
	c0,0-0.562-5.125-0.438-5.625V214.866z"/>
<path d="M259.826,216.438c0,0,3.062-2.812,3.375-2.812c0,0,3.5,4,3.5,4.25v9.312c0,0,0.438,4.812,0.375,5.375
	c0,0,0.375,3.188,0.375,3.562c0,0,0.75,2,0.562,2c0,0-6.938-1.375-7.062-1.625c0,0-0.688-8.125-0.688-8.625
	c0,0-0.562-5.125-0.438-5.625V216.438z"/>
<path d="M224.509,147.625c0,0-2.938,1.875-3.062,2.875c0,0-1.062,0.5-1.438,0.938c0,0-0.375,1.375,1.25,2.188
	c0,0,2.75,4.125,3.25,4.125c0,0,2.125-0.75,2.125-2.062c0,0,0.375-1.062,1.188-0.812c0,0,1.062-0.062,1.062-1
	c0,0,0.125-2.125-2.688-1.562c0,0-0.273-1.25,0.738-2C226.935,150.312,227.696,148.312,224.509,147.625z"/>
<path d="M254.063,154.394c0,0-2.938,1.875-3.062,2.875c0,0-1.062,0.5-1.438,0.938c0,0-0.375,1.375,1.25,2.188
	c0,0,2.75,4.125,3.25,4.125c0,0,2.125-0.75,2.125-2.062c0,0,0.375-1.062,1.188-0.812c0,0,1.062-0.062,1.062-1
	c0,0,0.125-2.125-2.688-1.562c0,0-0.273-1.25,0.738-2C256.489,157.082,257.251,155.082,254.063,154.394z"/>
<path d="M239.884,244.125c0,0,0.5-1.438,1.125-1.438c0,0,1.5,0.312,1.188,1.438c0,0-0.375,0.812,0.312,0.812
	c0,0,1,0.375,0.875,1.125c0,0-0.125,0.688-0.938,1c0,0-0.863-0.125-0.807,0.562c0,0-0.943,0.562-1.756-0.312
	c0,0-0.375-0.812,0-0.875c0,0-0.5-0.375-1.125-0.312c0,0-1.062-1.25,0.75-1.375C239.509,244.75,239.76,244.434,239.884,244.125z"/>
<path d="M270.884,249.75c0,0,0.5-1.438,1.125-1.438c0,0,1.5,0.312,1.188,1.438c0,0-0.375,0.812,0.312,0.812c0,0,1,0.375,0.875,1.125
	c0,0-0.125,0.688-0.938,1c0,0-0.863-0.125-0.807,0.562c0,0-0.943,0.562-1.756-0.312c0,0-0.375-0.812,0-0.875
	c0,0-0.5-0.375-1.125-0.312c0,0-1.062-1.25,0.75-1.375C270.509,250.375,270.76,250.059,270.884,249.75z"/>
<path d="M230.446,263.875c0,0,1.438,1.625,1.438,2.312c0,0-0.25,7.688,0,8.375c0,0,0.75,3.438,0.375,4.312
	c0,0-1.25,0.938-1.375-0.312c0,0-0.438-4.438-0.438-4.875c0,0-1.125-0.5-1.375-1.062c0,0,0.375-0.85,0.812-1.081
	C229.884,271.544,229.821,263.75,230.446,263.875z"/>
<path d="M242.196,266.125c0,0,1.438,1.625,1.438,2.312c0,0-0.25,7.688,0,8.375c0,0,0.75,3.438,0.375,4.312
	c0,0-1.25,0.938-1.375-0.312c0,0-0.438-4.438-0.438-4.875c0,0-0.361-0.782-0.562-2.144C241.634,273.794,241.571,266,242.196,266.125
	z"/>
<path d="M262.384,269.794c0,0,1.438,1.625,1.438,2.312c0,0-0.25,7.688,0,8.375c0,0,0.75,3.438,0.375,4.312
	c0,0-1.25,0.938-1.375-0.312c0,0-0.438-4.438-0.438-4.875c0,0-0.361-0.782-0.562-2.144
	C261.821,277.463,261.759,269.669,262.384,269.794z"/>
<path d="M273.718,271.544c0,0,1.438,1.625,1.438,2.312c0,0-0.25,7.688,0,8.375c0,0,0.75,3.438,0.375,4.312
	c0,0-1.25,0.938-1.375-0.312c0,0-0.438-4.438-0.438-4.875c0,0-0.361-0.782-0.562-2.144
	C273.155,279.213,273.093,271.419,273.718,271.544z"/>
<path d="M222.989,142.083c0,0,1.002-0.625,1.438-0.542c0,0,5.271,4,5.666,5.25c0,0,4.27,4.875,4.687,9.792
	c0,0,0.793,10.75,0.834,11.958c0,0,1,14.683,1,15.758c0,0,1.25,16.783,1.25,17.367c0,0,1.041,11.667,1.041,12.667
	c0,0,0.75,13.833,0.75,14.75c0,0,0.459,6.918,0.459,7.709c0,0-0.959-0.125-0.959-0.458c0,0-0.25-11.602-0.25-12.03
	c0,0-0.541-9.595-0.541-10.011l-1-12.542l-1.333-17.451l-1.083-15.55c0,0-0.626-11.5-0.667-11.833c0,0,0.172-4.935-4.375-9.792
	c0,0-5.457-5.167-5.479-4.958C224.428,142.166,223.405,142.708,222.989,142.083z"/>
<path d="M215.531,141.534"/>
<path d="M224.921,139.328c0,0,1.002-0.625,1.438-0.542c0,0,5.271,4,5.666,5.25c0,0,4.27,4.875,4.687,9.792
	c0,0,0.793,10.75,0.834,11.958c0,0,1,14.683,1,15.758c0,0,1.25,16.783,1.25,17.367c0,0,1.041,11.667,1.041,12.667
	c0,0,0.75,13.833,0.75,14.75c0,0,0.459,6.918,0.459,7.709c0,0-0.959-0.125-0.959-0.458c0,0-0.25-11.602-0.25-12.03
	c0,0-0.541-9.595-0.541-10.011l-1-12.542l-1.333-17.451l-1.083-15.55c0,0-0.626-11.5-0.667-11.833c0,0,0.172-4.935-4.375-9.792
	c0,0-5.457-5.167-5.479-4.958C226.359,139.41,225.337,139.953,224.921,139.328z"/>
<path d="M253.763,148.44c0,0,1.002-0.604,1.438-0.524c0,0,5.271,3.869,5.666,5.078c0,0,4.27,4.715,4.687,9.47
	c0,0,0.793,10.397,0.834,11.566c0,0,1,14.201,1,15.241c0,0,1.25,16.232,1.25,16.797c0,0,1.041,11.284,1.041,12.251
	c0,0,0.75,13.38,0.75,14.266c0,0,0.459,6.691,0.459,7.457c0,0-0.959-0.121-0.959-0.443c0,0-0.25-11.222-0.25-11.636
	c0,0-0.541-9.28-0.541-9.683l-1-12.131l-1.333-16.878l-1.083-15.04c0,0-0.626-11.123-0.667-11.445c0,0,0.172-4.773-4.375-9.471
	c0,0-5.457-4.997-5.479-4.795C255.201,148.52,254.179,149.045,253.763,148.44z"/>
<path d="M257.257,146.633c0,0,1.002-0.605,1.438-0.525c0,0,5.271,3.874,5.666,5.085c0,0,4.27,4.721,4.687,9.483
	c0,0,0.793,10.412,0.834,11.582c0,0,1,14.22,1,15.262c0,0,1.25,16.254,1.25,16.82c0,0,1.041,11.299,1.041,12.268
	c0,0,0.75,13.397,0.75,14.285c0,0,0.459,6.7,0.459,7.467c0,0-0.959-0.121-0.959-0.444c0,0-0.25-11.237-0.25-11.652
	c0,0-0.541-9.292-0.541-9.696l-1-12.147l-1.333-16.901l-1.083-15.06c0,0-0.626-11.138-0.667-11.46c0,0,0.172-4.779-4.375-9.484
	c0,0-5.457-5.004-5.479-4.802C258.695,146.713,257.673,147.239,257.257,146.633z"/>
<path d="M255.363,147.488c0,0,1.002-0.609,1.438-0.528c0,0,5.271,3.901,5.666,5.12c0,0,4.27,4.755,4.687,9.55
	c0,0,0.793,10.485,0.834,11.663c0,0,1,14.32,1,15.369c0,0,1.25,16.369,1.25,16.938c0,0,1.041,11.379,1.041,12.354
	c0,0,0.75,13.492,0.75,14.386c0,0,0.459,6.747,0.459,7.519c0,0-0.959-0.122-0.959-0.447c0,0-0.25-11.315-0.25-11.733
	c0,0-0.541-9.358-0.541-9.764l-1-12.232l-1.333-17.021l-1.083-15.166c0,0-0.626-11.215-0.667-11.541c0,0,0.172-4.813-4.375-9.55
	c0,0-5.457-5.04-5.479-4.836C256.802,147.568,255.779,148.098,255.363,147.488z"/>
<path d="M240.57,351.335c0,0,2.333,0.083,2.333,0.75c0,0,0.584,7.583,0.584,8.083c0,0,0.333,9.334,0.583,10.417
	c0,0,0.333,4.132,0.333,5.19v-1.059c0,0,0.543,4.096-0.582,4.533c0,0-2.5,0.5-2.625-2c0,0-0.312-4.875-0.375-5.5
	c0,0-0.127-4.375-0.251-4.875c0,0-0.437-4.625-0.437-5.312C240.134,361.562,240.007,351.732,240.57,351.335z"/>
<path d="M274.32,355.835c0,0,2.333,0.083,2.333,0.75c0,0,0.584,7.583,0.584,8.083c0,0,0.333,9.334,0.583,10.417
	c0,0,0.333,4.132,0.333,5.19v-1.059c0,0,0.543,4.096-0.582,4.533c0,0-2.5,0.5-2.625-2c0,0-0.312-4.875-0.375-5.5
	c0,0-0.127-4.375-0.251-4.875c0,0-0.437-4.625-0.437-5.312C273.884,366.062,273.757,356.232,274.32,355.835z"/>
<path d="M246.905,256.586c0,0,0.001-2.083,0.834-2.083c0,0,1.416,0.25,1.416,2.083c0,0-0.417,5.824,0,7.287
	c0,0,0.334,9.379,0.334,10.629c0,0,1.667,13.5,1.75,16.167c0,0,0.75,8.666,0.75,10.082c0,0,1.416,9.5,1.416,10.833
	c0,0,1.751,25.583,1.751,26.25c0,0,1.5,18,1.5,19.75c0,1.75,0,0.333,0,0.333s0.75,12.749,0.75,14.082c0,0,1.499,16.418,1.499,18.501
	c0,0,0.833,17.666,1,19c0,0,1.167,14.75,1.167,16.5c0,0,1.667,20.166,1.667,21.333c0,0,0.75,15.334,0.75,16.5
	c0,0,1.083,8.75,1.083,9.75c0,0,1.084,15.335,1.084,16.418c0,0,0.75,10.251,0.75,10.834c0,0,1,15.334,1,15.917
	c0,0,0.916,11.585,0.666,12.668c0,0-1.666,0.332-2.166,0.416c0,0-3.416,0.334-3.666-0.416c0,0-1.25-20-1.25-21.917
	c0,0-0.915-19.166-0.999-20.666c0,0-0.833-16.001-0.833-16.751c0,0-0.917-16.918-0.917-17.668c0,0-0.545-9.917-0.73-10.584
	c0,0-1.02-14-1.02-15.167c0,0-0.749-16.667-0.916-17.417c0,0-0.916-15.418-1-16.251c0,0-1.75-15.667-1.75-16.125
	c0,0-0.75-15.791-0.833-16.375c0,0-0.917-12.999-0.917-14.166c0,0-0.583-9.916-0.583-10.583c0,0-1.166-15.5-1.166-16.583
	c0,0-0.667-15.333-0.667-16c0,0-0.749-10.25-0.749-11.333c0,0-1.177-9.583-1.005-10.667c0,0-0.578-10.667-0.578-11.833
	c0,0,0.416-1.917,0.916-2.25c0,0,0.5-3.167,0-5.083L246.905,256.586z"/>
<path d="M249.909,237.168c0,0-2.584-1.17-1.25,0.957c0,0,0.033,10.96,0.434,12.21c0,0,1.979,1.083,2.147-0.5
	c0,0-0.831-4.709-0.914-6.063C250.326,243.772,250.783,237.453,249.909,237.168z"/>
<path d="M250.659,252.167c0,0,0.75-0.749,0.917,9.417c0,0,0.833,4.667,0.833,5.917c0,0,0.334,8.75,0.584,10.583
	c0,0,1.083,9.083,1.083,10.75c0,0,0.5,5.417,0.5,6.333c0,0-0.583,3.333-0.583,4.333c0,0,1.953,2.625,0.166,3.25
	c0,0-3.584-0.417-1.75-8.75c0,0-0.249-6.499-0.333-8.333c0,0-0.418-6.417-0.834-7.667c0,0-0.917-8.167-0.25-8.208
	c0,0,0.084-4.965-0.333-5.919c0,0-1.301-7.205-0.9-9.038C249.759,254.835,249.242,252,250.659,252.167z"/>
<path d="M123.905,380.375c0,0,0.167-1.791,1.25-1.708c0,0,0.833-0.031,1.125,1.442c0,0,1.458,0.391,1.5,1.641
	c0,0-0.417,1.751-1.583,3.417l0.042,0.833c0,0,3.25,0.417,0.042,4.042c0,0-0.542-0.207,0.125,1.084c0,0-0.208,1.125,1.083,0.833
	c0,0,2.333,0.417-0.875,3.625c0,0-1,0.584,0.125,1.542c0,0,3.583,0.415,0.375,2.874c0,0-1.666,2-0.083,2.625
	c0,0,2.833,0.543,1.25,3.709c0,0-0.75,1.125-0.75,2.416l0.375,5.375l-6.5,9.749l0.5-11.583c0,0,0.083-4.416-0.042-5.208
	c0,0-1.667-0.667-1.125-2.542c0,0,1.041-2.209,2.083-2.417c0,0,0.458-1.083-1.292-1.625c0,0-1.292-1.959,0.792-2.667
	c0,0,1.5-1,0-2.875c0,0-1.709-1.835,1.125-3.375c0,0,1-0.832-0.417-2.082c0,0-1.958-2.166,0.958-3.583c0,0,0.75-0.625-0.792-1.917
	C123.196,384,121.197,382.583,123.905,380.375z"/>
<path d="M108.329,402.98c0,0,0.167-1.791,1.25-1.708c0,0,0.833-0.031,1.125,1.442c0,0,1.458,0.391,1.5,1.641
	c0,0-0.417,1.751-1.583,3.417l0.042,0.833c0,0,3.25,0.417,0.042,4.042c0,0-0.542-0.207,0.125,1.084c0,0-0.208,1.125,1.083,0.833
	c0,0,2.333,0.417-0.875,3.625c0,0-1,0.584,0.125,1.542c0,0,3.583,0.415,0.375,2.874c0,0-1.666,2-0.083,2.625
	c0,0,2.833,0.543,1.25,3.709c0,0-0.75,1.125-0.75,2.416l0.375,5.375l-6.5,9.749l0.5-11.583c0,0,0.083-4.416-0.042-5.208
	c0,0-1.667-0.667-1.125-2.542c0,0,1.041-2.209,2.083-2.417c0,0,0.458-1.083-1.292-1.625c0,0-1.292-1.959,0.792-2.667
	c0,0,1.5-1,0-2.875c0,0-1.709-1.835,1.125-3.375c0,0,1-0.832-0.417-2.082c0,0-1.958-2.166,0.958-3.583c0,0,0.75-0.625-0.792-1.917
	C107.62,406.605,105.621,405.188,108.329,402.98z"/>
<path d="M95.426,422.978c0,0,0.142-1.522,1.062-1.452c0,0,0.708-0.026,0.956,1.226c0,0,1.239,0.332,1.274,1.395
	c0,0-0.354,1.488-1.345,2.903l0.036,0.708c0,0,2.761,0.354,0.035,3.435c0,0-0.46-0.176,0.106,0.921c0,0-0.177,0.956,0.921,0.708
	c0,0,1.983,0.354-0.744,3.08c0,0-0.85,0.496,0.106,1.311c0,0,3.044,0.353,0.318,2.441c0,0-1.416,1.699-0.07,2.23
	c0,0,2.408,0.462,1.062,3.151c0,0-0.638,0.956-0.638,2.054l0.319,4.566l-5.523,8.284l0.425-9.842c0,0,0.071-3.753-0.036-4.426
	c0,0-1.416-0.566-0.956-2.16c0,0,0.884-1.877,1.77-2.054c0,0,0.389-0.92-1.098-1.381c0,0-1.098-1.664,0.672-2.266
	c0,0,1.275-0.85,0-2.443c0,0-1.452-1.559,0.956-2.867c0,0,0.85-0.707-0.354-1.77c0,0-1.664-1.84,0.814-3.044
	c0,0,0.638-0.531-0.672-1.629C94.824,426.058,93.125,424.854,95.426,422.978z"/>
<path d="M82.646,440.594c0,0,0.132-1.421,0.991-1.355c0,0,0.662-0.024,0.893,1.144c0,0,1.156,0.311,1.189,1.302
	c0,0-0.331,1.389-1.256,2.71l0.034,0.66c0,0,2.577,0.331,0.033,3.206c0,0-0.43-0.164,0.099,0.859c0,0-0.165,0.892,0.859,0.66
	c0,0,1.851,0.331-0.694,2.875c0,0-0.793,0.463,0.1,1.223c0,0,2.84,0.329,0.296,2.278c0,0-1.321,1.586-0.065,2.082
	c0,0,2.247,0.431,0.991,2.941c0,0-0.595,0.892-0.595,1.916l0.297,4.262l-5.154,7.731l0.396-9.185c0,0,0.066-3.503-0.033-4.131
	c0,0-1.322-0.528-0.892-2.016c0,0,0.826-1.752,1.652-1.917c0,0,0.363-0.858-1.024-1.289c0,0-1.024-1.553,0.628-2.114
	c0,0,1.189-0.793,0-2.28c0,0-1.355-1.454,0.892-2.676c0,0,0.793-0.66-0.331-1.651c0,0-1.552-1.717,0.76-2.841
	c0,0,0.595-0.496-0.627-1.521C82.084,443.468,80.498,442.345,82.646,440.594z"/>
<path d="M7.262,506.126c0,0,0.142-1.522,1.062-1.452c0,0,0.708-0.026,0.956,1.226c0,0,1.239,0.332,1.274,1.395
	c0,0-0.354,1.488-1.345,2.903l0.036,0.708c0,0,2.761,0.354,0.035,3.435c0,0-0.46-0.176,0.106,0.921c0,0-0.177,0.956,0.921,0.708
	c0,0,1.983,0.354-0.744,3.08c0,0-0.85,0.496,0.106,1.311c0,0,3.044,0.353,0.318,2.441c0,0-1.416,1.699-0.07,2.23
	c0,0,2.408,0.462,1.062,3.151c0,0-0.638,0.956-0.638,2.054l0.319,4.566l-5.523,8.284l0.425-9.842c0,0,0.071-3.753-0.036-4.426
	c0,0-1.416-0.566-0.956-2.16c0,0,0.884-1.877,1.77-2.054c0,0,0.389-0.92-1.098-1.381c0,0-1.098-1.664,0.672-2.266
	c0,0,1.275-0.85,0-2.443c0,0-1.452-1.559,0.956-2.867c0,0,0.85-0.707-0.354-1.77c0,0-1.664-1.84,0.814-3.044
	c0,0,0.638-0.531-0.672-1.629C6.66,509.206,4.96,508.002,7.262,506.126z"/>
<path d="M31.5,495.775c0,0,0.142-1.522,1.062-1.452c0,0,0.708-0.026,0.956,1.226c0,0,1.239,0.332,1.274,1.395
	c0,0-0.354,1.488-1.345,2.903l0.036,0.708c0,0,2.761,0.354,0.035,3.435c0,0-0.46-0.176,0.106,0.921c0,0-0.177,0.956,0.921,0.708
	c0,0,1.983,0.354-0.744,3.08c0,0-0.85,0.496,0.106,1.311c0,0,3.044,0.353,0.318,2.441c0,0-1.416,1.699-0.07,2.23
	c0,0,2.408,0.462,1.062,3.151c0,0-0.638,0.956-0.638,2.054l0.319,4.566l-5.523,8.284l0.425-9.842c0,0,0.071-3.753-0.036-4.426
	c0,0-1.416-0.566-0.956-2.16c0,0,0.884-1.877,1.77-2.054c0,0,0.389-0.92-1.098-1.381c0,0-1.098-1.664,0.672-2.266
	c0,0,1.275-0.85,0-2.443c0,0-1.452-1.559,0.956-2.867c0,0,0.85-0.707-0.354-1.77c0,0-1.664-1.84,0.814-3.044
	c0,0,0.638-0.531-0.672-1.629C30.898,498.855,29.199,497.651,31.5,495.775z"/>
<path d="M15.988,699.499c0,0,1.833-40.666,5-43.333c0,0,3-7.501,15.333-13.667c0,0,11.167,0.501,17.5,20.834
	c0,0,1.5,32.666,1,37.166C54.821,700.499,25.321,701.332,15.988,699.499z"/>
<path d="M38.884,641.25c0,0,0.688-0.375,1.062-0.375c0,0,13.958,5.71,16.125,22.126l-0.5,1.916
	C55.571,664.917,56.113,650.249,38.884,641.25z"/>
<path d="M75.238,701.218c0,0,1.833-40.666,5-43.333c0,0,3-7.501,15.333-13.667c0,0,11.167,0.501,17.5,20.834
	c0,0,1.5,32.666,1,37.166C114.071,702.218,84.571,703.051,75.238,701.218z"/>
<path d="M98.134,642.969c0,0,0.688-0.375,1.062-0.375c0,0,13.958,5.71,16.125,22.126l-0.5,1.916
	C114.821,666.636,115.363,651.968,98.134,642.969z"/>
<path d="M17.905,602.332c0,0,0.75,14.917,1.75,15.5c0,0,1,0.75,0.75-1c0,0-1.583-12.667-0.75-18.417c0,0-2-2.5-2.75,0
	C16.905,598.415,18.238,598.665,17.905,602.332z"/>
<path d="M27.322,602.332c0,0,0.75,14.917,1.75,15.5c0,0,1,0.75,0.75-1c0,0-1.583-12.667-0.75-18.417c0,0-2-2.5-2.75,0
	C26.322,598.415,27.655,598.665,27.322,602.332z"/>
<path d="M37.072,602.915c0,0,0.75,14.917,1.75,15.5c0,0,1,0.75,0.75-1c0,0-1.583-12.667-0.75-18.417c0,0-2-2.5-2.75,0
	C36.072,598.998,37.405,599.248,37.072,602.915z"/>
<path d="M46.405,602.915c0,0,0.75,14.917,1.75,15.5c0,0,1,0.75,0.75-1c0,0-1.583-12.667-0.75-18.417c0,0-2-2.5-2.75,0
	C45.405,598.998,46.738,599.248,46.405,602.915z"/>
<path d="M73.675,603.676c0,0,0.75,14.917,1.75,15.5c0,0,1,0.75,0.75-1c0,0-1.583-12.667-0.75-18.417c0,0-2-2.5-2.75,0
	C72.675,599.759,74.008,600.009,73.675,603.676z"/>
<path d="M83.155,600.499c0,0,0.75,14.917,1.75,15.5c0,0,1,0.75,0.75-1c0,0-1.583-12.667-0.75-18.417c0,0-2-2.5-2.75,0
	C82.155,596.582,83.488,596.832,83.155,600.499z"/>
<path d="M92.295,604.562c0,0,1.549,14.855,2.579,15.384c0,0,1.039,0.695,0.695-1.039c0,0-2.261-12.563-1.737-18.35
	c0,0-2.131-2.39-2.746,0.147C91.087,600.704,92.431,600.882,92.295,604.562z"/>
<path d="M101.057,605.371c0,0,2.438,14.735,3.497,15.201c0,0,1.079,0.632,0.632-1.079c0,0-3.01-12.405-2.834-18.213
	c0,0-2.271-2.257-2.732,0.312C99.619,601.593,100.971,601.689,101.057,605.371z"/>
<path d="M-2.519,602.167l52.174,2.166h5.269c0,0,0.063-4.924,1.148-4.796c0,0-0.416-4.594,1.251-4.066c0,0-0.167-5.972,1.333-5.806
	c0,0,0.833,0.666,0.833,4.166c0,0,0.167,8.004,0,10.502c0,0,3,0.002,4.667,0c0,0-0.333-6.391,1.833-7.029
	c0,0,0.166-2.973-0.667-3.306c0,0-1.139-1.833,0.681-1.833c0,0,0.486-7.834,1.153-8.334c0,0,1.333-3.166,1,6.167
	c0,0,0.441,1.317,0.054,3.825c0,0,2.206,1.42,0.159,5.714l4.306,5.294l29.782,0.983c0,0,4.509,3.85,4.271,5.85l3.429,5.5
	c0,0-0.334,2.711,1.333,3.522l8.333,1.145v-13.6c0,0,2-11.288,2-12.761c0,0,0.31-9.968,1.667-9.973c0,0,0.998-7.661,1.499,14.336
	s10.501-30.67,10.501-30.67L1.655,560.498L-2.519,602.167z"/>
<polygon points="28.092,556.666 118.822,506.666 139.822,572.332 42.155,577.666 "/>
<path d="M267.321,600c0,0,9-16.25,21-18.5c0,0,16.001,4.75,25.001,24.75c0,0,3.75,8.5,4.25,21.75c0,0,3.5,51.75,3.5,55l-59.751,2
	c0,0-0.25-66,0-69.75C261.321,615.25,263.656,605.504,267.321,600z"/>
<path d="M288.696,577.75c0,0,26.876,11.875,30.001,33.5c0,0,1.375,14.5,1.75,22c0,0,3.375,48.625,3.375,50.125h1.125l-2.875-50.125
	l-2-22.25c0,0-3.375-20.625-30.626-34L288.696,577.75z"/>
<path d="M-0.376,722H434.52v-29.5c0,0-32.197,8.812-63.697,9.906c0,0-138.001-2.531-149.501-1.719c0,0-56-2.812-62,0
	c0,0-88.5-0.312-90,0c0,0-57.867-2.688-57.934-3.188l-11.764,3.188L-1.504,722"/>
<path d="M97.674,640.758c0,0,0.763-0.347,1.178-0.345c0,0,15.449,5.347,17.808,20.602l-0.559,1.779
	C116.101,662.794,116.738,649.169,97.674,640.758z"/>
<path d="M111.488,671.594c0,0,3.844-11.261,5.172-12.761c0,0,1.162-7.999,1.162-9.666c0,0-1-1.084,1.5-8.292
	c0,0,1.5-3.04,2.833-3.04c0,0,1.333-6.166,2.833-6.333c0,0,1.667-1,0,3.5c0,0-3.333,9.5-3.333,11.5c0,0,0.667,11.166,0.667,13.833
	c0,0,0.5,21.168,0,23.834c0,0-1.667,12.975-1.667,18.237l-8.167,2.596L111.488,671.594z"/>
<path d="M52.121,671.215c0,0,4.431-11.043,5.836-12.472c0,0,1.581-7.927,1.669-9.591c0,0-0.942-1.136,1.934-8.202
	c0,0,1.658-2.957,2.989-2.887c0,0,1.656-6.087,3.163-6.175c0,0,1.717-0.911-0.184,3.495c0,0-3.829,9.312-3.934,11.309
	c0,0,0.079,11.186-0.062,13.849c0,0-0.614,21.165-1.254,23.801c0,0-2.347,12.869-2.624,18.125l-8.292,2.162L52.121,671.215z"/>
<path d="M40.351,639.957c0,0,0.688-0.375,1.062-0.375c0,0,13.958,5.71,16.125,22.126l-0.5,1.916
	C57.039,663.624,57.58,648.956,40.351,639.957z"/>
<polygon points="220.821,703.75 226.071,697.5 232.446,698.25 240.196,694.625 242.321,695.375 242.321,694.625 243.696,693.5 
	244.571,691.625 245.946,692.5 248.196,692.5 247.321,691.625 248.196,691.125 250.321,688.875 253.321,689.875 255.446,688.875 
	257.696,688.875 255.821,690.875 250.696,695.5 246.821,698.125 245.196,703.75 "/>
<path d="M294.447,699.375h37.375l33.375-0.75l15.25,0.75h29.375h24.697V692.5c0,0-32.322,0.875-33.947,1.375l-11.75,0.25l-14.25,1
	l-16.625,0.125l-15.25-0.125l-16.375,0.125l-7.125-0.125l-12.375,0.375l-4.375,1.75L294.447,699.375z"/>
<path d="M359.072,628l3,2.875c0,0,2.625-0.25,2.5,1.625c0,0,1.133,2.875,0.004,3.375c0,0-1.629-1.375-2.004,0
	c0,0,1.75,1.375,0.625,3.5c0,0,1.76,1,1.879,3.125c0,0,1.371,1.25,1.746,0c0,0,3.125,1.375-1.75,2.5c0,0-2.625,2.5-4.875,1.75
	c0,0-4.75,0.75-1.125-1.375c0,0-0.102-8.234-1.363-7.93c0,0-3.637,1.805-0.637-2.445C357.072,635,357.197,627.75,359.072,628z"/>
<path d="M238.686,628.728l2.617,3.228c0,0,2.636,0.08,2.277,1.924c0,0,0.765,2.994-0.418,3.35c0,0-1.444-1.568-1.988-0.251
	c0,0,1.564,1.583,0.183,3.551c0,0,1.621,1.212,1.475,3.336c0,0,1.203,1.411,1.731,0.218c0,0,2.929,1.755-2.049,2.262
	c0,0-2.917,2.152-5.056,1.127c0,0-4.807,0.15-0.944-1.505c0,0,0.929-8.183-0.361-8.038c0,0-3.834,1.336-0.326-2.505
	C235.826,635.423,236.856,628.245,238.686,628.728z"/>
<path d="M378.643,609.396c0,0,9.082,11.858,10.236,11.771c0,0,1.248,0.051,0.049-1.249c0,0-8.49-9.531-11.066-14.74
	c0,0-3.064-0.924-2.264,1.561C375.598,606.738,376.836,606.188,378.643,609.396z"/>
<path d="M385.635,610.021c0,0,9.082,11.858,10.236,11.771c0,0,1.248,0.051,0.049-1.249c0,0-8.49-9.531-11.066-14.74
	c0,0-3.064-0.924-2.264,1.561C382.59,607.363,383.828,606.813,385.635,610.021z"/>
<path d="M392.068,610.021c0,0,9.082,11.858,10.236,11.771c0,0,1.248,0.051,0.049-1.249c0,0-8.49-9.531-11.066-14.74
	c0,0-3.064-0.924-2.264,1.561C389.023,607.363,390.262,606.813,392.068,610.021z"/>
<path d="M395.947,641.625c0,0-8.75,3.375-10,14.75c0,0-0.25,26.75,0,31.875l-0.111,1.5c0,0,28.986-1,29.361-1.5
	c0,0-3.125-28.625-4.375-31.875c0,0-3.25-8.625-8.625-12.5C402.197,643.875,399.322,641.875,395.947,641.625z"/>
<path d="M397.404,640.083l1.168-0.583c0,0,12.166,6.167,15.832,20c0,0,3.75,28.749,3.834,30.25h-1c0,0-3.002-29.083-3.418-30.083
	C413.82,659.667,411.988,647.166,397.404,640.083z"/>
<path d="M373.447,602.75c0,0,6.49,1.62,8.25,2.26c0,0,19.729,2.615,21.176,2.24c0,0,31.646,1.875,31.646,1.125v75.25
	c0,0-2.072-4-1.572-5.375c0,0-2.875-1.875-2.875-2.5c0,0,1.75-0.25,0.625-3.375c0,0-1.75-4.5-1.25-5.5c0,0-3-1.25-1.125-7
	c0,0-0.875-1.5-1.5-2.625c0,0,0.75-2.625,0.75-4.25c0,0-3-4.75-3-7c0,0,0.75-4.115-0.75-8.558c0,0-1.375-4.567-0.125-5.692
	c0,0-0.375-1.75-2.5-1.625c0,0-1.125-6.25,0.75-6.375c0,0-5.111-12.027-4.875-13.875c0,0-39.125-2.48-43.125-4.24
	C373.947,605.635,371.572,603.875,373.447,602.75z"/>
<path d="M244.292,458.395c0,0-0.25-1.5,0.75-1.375c0,0,6.25,2.875,6.75,9.875c0,0,1.375,19.875,1.375,22.5l2.25,40
	c0,0-0.125,0.5-0.875,0l-2.25-39.75c0,0-1.25-21.75-1.5-22.5C250.792,467.145,249.792,460.02,244.292,458.395z"/>
<path d="M287.444,457.407c0,0-0.25-1.5,0.75-1.375c0,0,6.251,2.875,6.751,9.875c0,0,1.375,19.875,1.375,22.5l2.25,40
	c0,0-0.125,0.5-0.875,0l-2.25-39.75c0,0-1.25-21.75-1.501-22.5C293.944,466.157,292.944,459.032,287.444,457.407z"/>
<path d="M292.993,575.557c0,0,26.876,11.875,30.001,33.5c0,0,1.375,14.5,1.75,22c0,0,3.375,48.625,3.375,50.125h1.125l-2.875-50.125
	l-2-22.25c0,0-3.375-20.625-30.626-34L292.993,575.557z"/>
<path d="M298.57,572.02c0,0,26.875,11.875,30,33.5c0,0,1.375,14.5,1.75,22c0,0,3.375,48.625,3.375,50.125h1.125l-2.875-50.125
	l-2-22.25c0,0-3.375-20.625-30.625-34L298.57,572.02z"/>
<path d="M276.658,526.374c0,0,4.375-1.125,4.75-1.125c0,0,0.375-0.375,1,7c0,0,2.375,10.375,1.5,11.625c0,0,0.5,1.875-2.875-0.625
	c0,0-0.875,1.5-0.125,2.625c0,0-0.625,1.375-1.75-0.625c0,0-0.75-9.293-1.625-9.459c0,0-0.5-5.041,0-5.916
	C277.533,529.874,275.923,526.562,276.658,526.374z"/>
<path d="M287.033,529.499c0,0-1.5-0.5-2.125,1.125c0,0,0,1,1.062,1.75c0,0-0.938,2.332,0,3.416c0,0-0.188,0.834,0,1.584
	c0,0,1.312,1.332,1.062-1.584c0,0,0.688-3.791,0.031-4.541L287.033,529.499z"/>
<path d="M284.908,545.124c0,0,2.256,1.375,2.44-1.625c0,0,0.06-2.875,0.81-2.875c0,0,0.631-1.75-0.81-1.625
	c0,0-3.44,1.625-5.065,0.75c0,0,0,1.684,0.625,2.467C282.908,542.216,283.783,545.874,284.908,545.124z"/>
<path d="M302.283,550.749c0,0-1.5-2-0.875,4.5c0,0-0.43,2.25-0.152,3.25c0,0,1.652,1,1.652-2.375
	C302.908,556.124,302.158,551.749,302.283,550.749z"/>
<path d="M276.466,547.249c0,0-1.933,1.045-1.933,3.21c0,0-0.566,1.915,0.967,1.29c0,0,1.148,15.25,0.966,18.5
	c0,0-0.433,1.5,0.942,1.375c0,0,0.5-0.375,0-9.25c0,0,0.445-9.5,0.223-10.5c0,0-1.482-0.455-1.165-1.415
	C276.466,550.459,277.523,547.999,276.466,547.249z"/>
<path d="M282.283,555.124c0,0-1,1.152-0.875,3.514c0,0,0.875,4.986,2.125,2.986c0,0,0.75-0.277,0-3.014
	C283.533,558.61,283.658,554.499,282.283,555.124z"/>
<path d="M288.296,561.124c0,0-0.882,0.25-0.947,2.125c0,0,0.638,0.5,0.474,1.75s0,0.5,0,0.5s0.211,2.75,1.086,1.625
	C288.908,567.124,289.809,560.249,288.296,561.124z"/>
<path d="M281.397,563.124c0,0-1.761,0.125,0,2.625c0,0-1.386,2.5,0,3.5c0,0,2.458,3.041,1.234-1.854
	C282.632,567.395,282.887,563.624,281.397,563.124z"/>
<path d="M239.658,529.427c0,0-1.75-0.178-1.25,1.697c0,0,1.695,2.23-0.09,2.428c0,0,0.215,3.447-1.66,1.447c0,0-1.5,0.357,0,2.679
	c0,0,1.125,0.696,1.875,5.196c0,0-1.25,1.422,0.25,3.461c0,0-0.5,1.334-0.125,4.124c0,0-0.5,8.79,1,9.415
	c0,0,0.625,3.684,0.625,6.779c0,0,0.75,4.596,1,5.846c0,0-0.875,6.625-1.375,7.25c0,0-0.5,5.25,1.375,7.125c0,0,1.375-0.125,1.375-2
	c0,0,0.625-1.5,0.625-4.375c0,0,0.198-4.36,0.065-6.375c-0.017-0.248-0.038-0.461-0.065-0.625c-0.25-1.5-1.5-8.678-1.5-11.401
	c0,0-0.875-12.552-0.875-15.763C240.908,546.335,240.783,529.979,239.658,529.427z"/>
<path d="M245.908,543.999c0,0,1.375,0,1.75,0.875c0,0,3.25,0.375,3.25-0.438c0,0,1.125-1.266,0.75,1.898c0,0-1.875-0.836-2,0.914
	c0,0,0.375,4.098-0.125,7.299c0,0,0.125,1.572,1.25,0.512c0,0,1.375,0.064,0.125,1.814c0,0-1.5-0.467-1.375,1.704
	c0,0,1.875,0.845,1.625-0.43c0,0,1.625,0.726-1,2.226c0,0-0.625,2.697,0.75,1.724c0,0,2.875-0.724,0.125,1.026
	c0,0-0.625,2.125-1.125,1.875c0,0-1.75,0.322-2-2.901c0,0-0.375-9.804-0.625-11.639
	C247.283,550.459,244.658,545.624,245.908,543.999z"/>
<path d="M263.35,529.192v2.312c0,0-1.312,0.188-2,3.5c0,0-0.625,3.375,1,5.812c0,0,2.362,3.955,3.48,4.707
	c0.075,0.05,0.145,0.086,0.207,0.105c1,0.312,1.688-0.75,1.625-2.125s0-8.25-0.75-10c0,0-1.125-3.188-0.688-4.875L263.35,529.192z"
	/>
</svg>
